<?xml version="1.0" encoding="utf-8"?>
<!-- Generator: Adobe Illustrator 15.0.2, SVG Export Plug-In . SVG Version: 6.00 Build 0)  -->
<!DOCTYPE svg PUBLIC "-//W3C//DTD SVG 1.1 Tiny//EN" "http://www.w3.org/Graphics/SVG/1.1/DTD/svg11-tiny.dtd">
<svg version="1.1" baseProfile="tiny" id="Layer_1" xmlns="http://www.w3.org/2000/svg" xmlns:xlink="http://www.w3.org/1999/xlink"
	 x="0px" y="0px" width="159px" height="130px" viewBox="0 0 159 130" xml:space="preserve">
<g>
	<g>
		<path fill="#414141" d="M37.83,94.354v-7.201h3.021c1.403,0,2.104,0.66,2.104,1.979c0,1.298-1.123,2.127-3.368,2.481l-0.091-0.483
			c1.913-0.266,2.87-0.918,2.87-1.959c0-1.033-0.534-1.551-1.602-1.551h-2.407v6.733H37.83z"/>
		<path fill="#414141" d="M44.19,94.354v-5.288h0.377l0.065,0.877c0.53-0.584,1.121-0.877,1.773-0.877v0.424
			c-0.631,0-1.194,0.307-1.688,0.922v3.942H44.19z"/>
		<path fill="#414141" d="M47.135,91.711c0-1.798,0.823-2.694,2.468-2.694c1.644,0,2.467,0.896,2.467,2.694
			c0,1.792-0.823,2.688-2.467,2.688C47.964,94.399,47.142,93.503,47.135,91.711z M49.603,93.951c1.292,0,1.938-0.754,1.938-2.262
			c0-1.479-0.646-2.22-1.938-2.22c-1.292,0-1.939,0.74-1.939,2.22C47.664,93.197,48.311,93.951,49.603,93.951z"/>
		<path fill="#414141" d="M57.81,94.036c-0.574,0.211-1.297,0.318-2.17,0.318c-1.642,0-2.462-0.917-2.462-2.751
			c0-1.691,0.836-2.537,2.508-2.537c0.523,0,1.055,0.084,1.596,0.252v-2.165h0.529V94.036z M57.281,89.791
			c-0.51-0.182-1.041-0.271-1.59-0.271c-1.299,0-1.949,0.683-1.949,2.05c0,1.541,0.65,2.311,1.949,2.311
			c0.55,0,1.081-0.065,1.59-0.195V89.791z"/>
		<path fill="#414141" d="M63.776,89.066v5.288h-0.388l-0.06-0.676c-0.608,0.451-1.286,0.676-2.035,0.676
			c-1.249,0-1.873-0.657-1.873-1.97v-3.318h0.528v3.333c0,0.987,0.458,1.48,1.371,1.48c0.667,0,1.311-0.223,1.928-0.668v-4.146
			H63.776z"/>
		<path fill="#414141" d="M69.214,94.202c-0.437,0.101-0.907,0.152-1.41,0.152c-1.779,0-2.668-0.915-2.668-2.744
			c0-1.697,0.89-2.544,2.668-2.544c0.503,0,0.973,0.05,1.41,0.151v0.453c-0.47-0.102-0.923-0.151-1.359-0.151
			c-1.427,0-2.141,0.696-2.141,2.091c0,1.526,0.714,2.29,2.141,2.29c0.436,0,0.889-0.05,1.359-0.151V94.202z"/>
		<path fill="#414141" d="M70.428,88.211h0.373l0.096,0.855h1.585v0.453h-1.541v3.339c0,0.694,0.256,1.042,0.766,1.042h0.775v0.454
			h-0.765c-0.859,0-1.29-0.477-1.29-1.426V88.211z"/>
		<path fill="#414141" d="M73.354,91.711c0-1.798,0.823-2.694,2.467-2.694c1.644,0,2.467,0.896,2.467,2.694
			c0,1.792-0.823,2.688-2.467,2.688C74.183,94.399,73.36,93.503,73.354,91.711z M75.821,93.951c1.292,0,1.938-0.754,1.938-2.262
			c0-1.479-0.646-2.22-1.938-2.22c-1.292,0-1.939,0.74-1.939,2.22C73.882,93.197,74.528,93.951,75.821,93.951z"/>
		<path fill="#414141" d="M79.547,94.102v-0.504c0.587,0.202,1.164,0.303,1.731,0.303c1.11,0,1.667-0.352,1.667-1.058
			c0-0.57-0.412-0.855-1.232-0.855h-0.676c-1.107,0-1.662-0.47-1.662-1.41c0-1.008,0.734-1.511,2.201-1.511
			c0.563,0,1.139,0.084,1.727,0.252v0.504c-0.588-0.202-1.164-0.303-1.727-0.303c-1.115,0-1.672,0.353-1.672,1.058
			c0,0.604,0.377,0.907,1.133,0.907h0.676c1.172,0,1.762,0.452,1.762,1.358c0,1.008-0.732,1.512-2.196,1.512
			C80.711,94.354,80.134,94.27,79.547,94.102z"/>
		<path fill="#414141" d="M91.73,94.036c-0.572,0.211-1.295,0.318-2.168,0.318c-1.643,0-2.463-0.917-2.463-2.751
			c0-1.691,0.836-2.537,2.508-2.537c0.523,0,1.055,0.084,1.596,0.252v-2.165h0.527V94.036z M91.203,89.791
			c-0.51-0.182-1.041-0.271-1.592-0.271c-1.299,0-1.947,0.683-1.947,2.05c0,1.541,0.648,2.311,1.947,2.311
			c0.551,0,1.082-0.065,1.592-0.195V89.791z"/>
		<path fill="#414141" d="M95.473,89.066c1.447,0,2.17,0.801,2.17,2.401c0,0.114-0.004,0.234-0.01,0.358h-4.014
			c0,1.383,0.732,2.074,2.195,2.074c0.602,0,1.135-0.084,1.602-0.252v0.453c-0.467,0.168-1,0.253-1.602,0.253
			c-1.816,0-2.723-0.902-2.723-2.705C93.092,89.928,93.885,89.066,95.473,89.066z M93.619,91.353h3.516
			c-0.021-1.229-0.574-1.844-1.662-1.844C94.299,89.509,93.68,90.124,93.619,91.353z"/>
		<path fill="#414141" d="M107.059,94.102c-0.654,0.201-1.326,0.302-2.016,0.302c-2.518,0-3.775-1.249-3.775-3.751
			c0-2.365,1.258-3.55,3.775-3.55c0.689,0,1.361,0.101,2.016,0.303v0.453c-0.654-0.201-1.293-0.303-1.914-0.303
			c-2.232,0-3.348,1.033-3.348,3.097c0,2.199,1.115,3.299,3.348,3.299c0.621,0,1.26-0.101,1.914-0.303V94.102z"/>
		<path fill="#414141" d="M108.596,94.354v-7.201h0.527v2.487c0.617-0.382,1.25-0.574,1.898-0.574c1.285,0,1.928,0.656,1.928,1.969
			v3.319h-0.527v-3.536c0-0.852-0.477-1.278-1.426-1.278c-0.633,0-1.258,0.224-1.873,0.67v4.145H108.596z"/>
		<path fill="#414141" d="M115.242,87.153v0.604h-0.629v-0.604H115.242z M115.189,89.066v5.288h-0.527v-5.288H115.189z"/>
		<path fill="#414141" d="M117.531,87.153v7.201h-0.529v-7.201H117.531z"/>
		<path fill="#414141" d="M121.373,89.066c1.447,0,2.17,0.801,2.17,2.401c0,0.114-0.002,0.234-0.01,0.358h-4.014
			c0,1.383,0.732,2.074,2.195,2.074c0.602,0,1.135-0.084,1.602-0.252v0.453c-0.467,0.168-1,0.253-1.602,0.253
			c-1.814,0-2.723-0.902-2.723-2.705C118.992,89.928,119.785,89.066,121.373,89.066z M119.52,91.353h3.516
			c-0.021-1.229-0.574-1.844-1.662-1.844C120.199,89.509,119.58,90.124,119.52,91.353z"/>
	</g>
	<path fill="#289B48" d="M18.009,61.105h5.166v21.198H18.76l-6.043-9.143c-0.532-0.783-1.878-3.037-2.442-3.946
		c0.096,1.284,0.282,3.757,0.282,4.947l0.094,8.142H5.484V61.105h4.228l6.105,9.08c0.752,1.127,1.941,3.1,2.536,4.07
		c-0.062-1.314-0.219-3.726-0.25-5.041L18.009,61.105z"/>
	<path fill="#289B48" d="M39.836,74.757c0,4.948,1.723,6.544,1.723,6.544l-3.978,1.252c0,0-1.127-1.063-1.502-3.13
		c-0.689,1.941-2.035,3.068-4.29,3.068c-4.103,0-6.043-3.1-6.043-7.797c0-4.79,3.192-8.329,7.859-8.329
		c2.599,0,6.168,0.908,6.23,0.908V74.757z M34.89,73.88v-3.631c-0.282-0.125-0.909-0.251-1.284-0.251c-2.035,0-2.6,1.848-2.6,4.383
		c0,2.317,0.095,4.479,1.598,4.479C33.888,78.859,34.89,76.511,34.89,73.88z"/>
	<path fill="#289B48" d="M42.251,66.71c0,0,2.045,0.373,2.566,0c1.186-0.848,1.405-4.04,1.405-4.04s1.104-1.131,1.725-0.88
		c1.207,0.486,0.957,4.183,1.692,4.92c0.653,0.653,3.695,0,3.695,0l-0.595,3.633H49.64v6.981c0,0.908,0.501,1.378,1.441,1.378
		c1.002,0,2.254-0.345,2.254-0.345l0.845,3.32c-0.845,0.281-2.316,0.751-4.447,0.751c-3.13,0-5.009-1.159-5.009-4.259v-7.827h-2.473
		V66.71z"/>
	<path fill="#289B48" d="M64.452,66.585h4.946v8.172c0,4.948,1.723,6.544,1.723,6.544l-3.977,1.252c0,0-1.034-1-1.472-2.88
		c-1.097,1.941-3.132,2.818-5.323,2.818c-3.288,0-4.509-2.129-4.509-5.448V66.585h4.979v9.8c0,1.473,0.281,2.442,1.252,2.442
		c1.158,0,2.38-1.69,2.38-4.415V66.585z"/>
	<path fill="#289B48" d="M78.858,74.319v7.984h-4.947v-8.142c0-4.947-1.722-6.544-1.722-6.544l3.976-1.253
		c0,0,0.971,0.972,1.409,2.818c1.033-2.003,2.474-2.818,4.416-2.818c0.875,0,1.564,0.188,2.035,0.345l-1.285,4.729
		c-0.281-0.156-0.783-0.345-1.472-0.345C80.393,71.094,78.858,72.064,78.858,74.319z"/>
	<path fill="#E5BC21" d="M85.906,61.105H99.4v3.757h-8.328v4.854h6.982l-0.627,3.727h-6.355v8.861h-5.166V61.105z"/>
	<path fill="#E5BC21" d="M105.604,74.319v7.984h-4.947v-8.142c0-4.947-1.721-6.544-1.721-6.544l3.975-1.253
		c0,0,0.971,0.972,1.408,2.818c1.035-2.003,2.475-2.818,4.416-2.818c0.877,0,1.564,0.188,2.035,0.345l-1.283,4.729
		c-0.283-0.156-0.783-0.345-1.473-0.345C107.137,71.094,105.604,72.064,105.604,74.319z"/>
	<path fill="#E5BC21" d="M118.725,66.272c3.914,0,5.479,2.034,5.479,4.729c0,3.037-3.1,5.415-8.078,5.822
		c0.283,1.253,1.002,2.099,2.568,2.099c1.816,0,4.447-1.002,4.447-1.002l0.938,3.256c0,0-2.848,1.41-6.168,1.41
		c-5.104,0-7.139-3.101-7.139-7.704C110.771,69.278,114.246,66.272,118.725,66.272z M115.875,73.66
		c2.475-0.062,3.414-1.533,3.414-2.534c0-0.783-0.502-1.316-1.191-1.316C116.502,69.81,115.938,71.876,115.875,73.66z"/>
	<path fill="#E5BC21" d="M137.232,67.618l-1.566,3.508c-0.689-0.345-2.129-1.128-3.412-1.128c-0.658,0-1.189,0.281-1.189,0.906
		c0,0.659,0.939,1.316,2.348,1.912c2.475,1.033,3.914,2.348,3.914,4.759c0,2.692-1.941,5.041-5.637,5.041
		c-2.879,0-5.197-0.972-6.23-1.44l1.629-3.601c0.406,0.188,2.254,1.284,3.662,1.284c0.877,0,1.504-0.345,1.504-1.002
		c0-0.783-0.783-1.441-1.848-1.848c-3.131-1.253-4.383-2.693-4.383-5.041c0-2.662,2.064-4.666,5.541-4.666
		C134.695,66.303,137.232,67.618,137.232,67.618z"/>
	<path fill="#E5BC21" d="M144.906,67.774c1.094-0.971,2.568-1.409,4.102-1.409c3.256,0,4.508,2.13,4.508,5.448v10.49h-4.979v-9.769
		c0-1.474-0.281-2.443-1.252-2.443c-1.096,0-2.379,1.502-2.379,3.946v8.266h-4.949V60.448l4.949-0.846V67.774z"/>
	<g id="XMLID_6_">
		<g>
			<path fill="#84BF41" d="M44.053,49.021c3.872-11.192,17.723-5.016,22.98-13.424c-1.924,7.286-2.548,17.766-10.259,22.062
				c-11.21,6.236-13.763-3.759-3.964-9.098c-4.232,0.443-6.055,3.412-7.449,7.155C45.36,55.716,43.112,51.736,44.053,49.021z"/>
		</g>
	</g>
	<g id="XMLID_5_">
		<g>
			<path fill="#279C48" d="M43.377,54.905c0.15,0.483,0.208,1.825-0.432,2.022c-0.718-2.498-3.744-2.746-6.435-3.312
				c1.929,0.878,5.526,1.188,6.013,4.962c-1.2,1.653-4.374,1.031-5.945,0.396c-4.117-1.667-4.978-4.767-9.477-6.564
				c3.359-0.604,5.969-2.827,8.511-2.81C35.612,49.6,41.538,48.948,43.377,54.905z"/>
		</g>
	</g>
	<path fill="#FFFFFF" d="M49.35,64.569"/>
	<path fill="#289B48" d="M46.15,64.614c0,0,0.42-4.917-1.891-6.439c0,0,0.422-0.349,0.422-0.458c0,0,3.98,2.807,4.183,6.163"/>
</g>
</svg>
